<?xml version="1.0" encoding="UTF-8" standalone="no"?>
<svg
   xmlns:dc="http://purl.org/dc/elements/1.1/"
   xmlns:cc="http://creativecommons.org/ns#"
   xmlns:rdf="http://www.w3.org/1999/02/22-rdf-syntax-ns#"
   xmlns:svg="http://www.w3.org/2000/svg"
   xmlns="http://www.w3.org/2000/svg"
   xmlns:sodipodi="http://sodipodi.sourceforge.net/DTD/sodipodi-0.dtd"
   xmlns:inkscape="http://www.inkscape.org/namespaces/inkscape"
   width="1080"
   height="1440"
   viewBox="0 0 1080 1440"
   version="1.1"
   id="svg8"
   inkscape:export-filename="/tycho/android/system/device/onyx/t68/recovery/res/images/progress_fill.png"
   inkscape:export-xdpi="96"
   inkscape:export-ydpi="96"
   sodipodi:docname="recovery_theme.svg"
   inkscape:version="1.0.1 (3bc2e813f5, 2020-09-07)">
  <defs
     id="defs2" />
  <sodipodi:namedview
     id="base"
     pagecolor="#ffffff"
     bordercolor="#666666"
     borderopacity="1.0"
     inkscape:pageopacity="0.0"
     inkscape:pageshadow="2"
     inkscape:zoom="2.2859365"
     inkscape:cx="930.6707"
     inkscape:cy="99.520861"
     inkscape:document-units="px"
     inkscape:current-layer="layer1"
     inkscape:document-rotation="0"
     showgrid="false"
     units="px"
     inkscape:pagecheckerboard="true"
     showguides="true"
     inkscape:guide-bbox="true"
     inkscape:window-width="1920"
     inkscape:window-height="1016"
     inkscape:window-x="0"
     inkscape:window-y="27"
     inkscape:window-maximized="1">
    <inkscape:grid
       type="xygrid"
       id="grid849" />
  </sodipodi:namedview>
  <metadata
     id="metadata5">
    <rdf:RDF>
      <cc:Work
         rdf:about="">
        <dc:format>image/svg+xml</dc:format>
        <dc:type
           rdf:resource="http://purl.org/dc/dcmitype/StillImage" />
        <dc:title />
      </cc:Work>
    </rdf:RDF>
  </metadata>
  <g
     inkscape:label="Layer 1"
     inkscape:groupmode="layer"
     id="layer1">
    <g
       id="g919">
      <path
         id="path851"
         style="fill:#000000;stroke:none;stroke-width:1px;stroke-linecap:butt;stroke-linejoin:miter;stroke-opacity:1"
         d="m 770,36 -10,14 h 10 10 10 10 l 10,-14 h -10 -10 -10 z" />
      <path
         id="path879"
         style="fill:#ffffff;stroke:none;stroke-width:1px;stroke-linecap:butt;stroke-linejoin:miter;stroke-opacity:1"
         d="m 810,36 -10,14 h 10 10 10 10 l 10,-14 h -10 -10 -10 z" />
      <path
         id="path883"
         style="fill:#000000;stroke:none;stroke-width:1px;stroke-linecap:butt;stroke-linejoin:miter;stroke-opacity:1"
         d="m 850,36 -10,14 h 10 10 10 10 l 10,-14 h -10 -10 -10 z" />
      <path
         id="path885"
         style="fill:#ffffff;stroke:none;stroke-width:1px;stroke-linecap:butt;stroke-linejoin:miter;stroke-opacity:1"
         d="m 890,36 -10,14 h 10 10 10 10 l 10,-14 h -10 -10 -10 z" />
      <path
         id="path887"
         style="fill:#000000;stroke:none;stroke-width:1px;stroke-linecap:butt;stroke-linejoin:miter;stroke-opacity:1"
         d="m 930,36 -10,14 h 10 10 10 10 l 10,-14 h -10 -10 -10 z" />
      <path
         id="path889"
         style="fill:#ffffff;stroke:none;stroke-width:1px;stroke-linecap:butt;stroke-linejoin:miter;stroke-opacity:1"
         d="m 970,36 -10,14 h 10 10 10 10 l 10,-14 h -10 -10 -10 z" />
      <path
         id="path891"
         style="fill:#000000;stroke:none;stroke-width:1px;stroke-linecap:butt;stroke-linejoin:miter;stroke-opacity:1"
         d="m 1010,36 -10,14 h 10 10 10 10 l 10,-14 h -10 -10 -10 z" />
      <path
         id="path909"
         style="fill:#ffffff;stroke:none;stroke-width:1px;stroke-linecap:butt;stroke-linejoin:miter;stroke-opacity:1"
         d="m 730,36 -10,14 h 10 10 10 10 l 10,-14 h -10 -10 -10 z" />
      <path
         id="path1090"
         style="fill:#ffffff;stroke:none;stroke-width:1px;stroke-linecap:butt;stroke-linejoin:miter;stroke-opacity:1"
         d="m 730,126 -10,14 h 10 10 10 10 l 10,-14 h -10 -10 -10 z" />
    </g>
    <rect
       style="fill:#ffffff;stroke:none"
       id="rect10"
       width="350"
       height="735"
       x="0"
       y="0"
       inkscape:export-xdpi="94.080002"
       inkscape:export-ydpi="94.080002"
       inkscape:export-filename="/tycho/android/system/device/onyx/t68/recovery/res/images/stitch.png" />
    <rect
       style="fill:#ffffff;stroke:none"
       id="rect12"
       width="252"
       height="14"
       x="760"
       y="0"
       inkscape:export-xdpi="96"
       inkscape:export-ydpi="96"
       inkscape:export-filename="/tycho/android/system/device/onyx/t68/recovery/res/images/progress_empty.png" />
    <rect
       style="fill:none;stroke:#000000;stroke-width:0.963143;stroke-miterlimit:4;stroke-dasharray:none"
       id="rect14"
       width="251.03685"
       height="13.036857"
       x="760.48157"
       y="0.4815715"
       rx="4"
       ry="4" />
    <rect
       style="fill:#ffffff;stroke:none"
       id="rect841"
       width="252"
       height="14"
       x="760"
       y="18"
       inkscape:export-xdpi="96"
       inkscape:export-ydpi="96" />
    <rect
       style="fill:#000000;stroke:#000000;stroke-width:0.963143;stroke-miterlimit:4;stroke-dasharray:none"
       id="rect843"
       width="251.03685"
       height="13.036857"
       x="760.48157"
       y="18.481571"
       rx="4"
       ry="4"
       inkscape:export-xdpi="96"
       inkscape:export-ydpi="96"
       inkscape:export-filename="/tycho/android/system/device/onyx/t68/recovery/res/images/progress_fill.png" />
    <g
       id="g930"
       inkscape:export-xdpi="96"
       inkscape:export-ydpi="96"
       inkscape:export-filename="/tycho/android/system/device/onyx/t68/recovery/res/images/indeterminate01.png">
      <path
         id="rect921"
         style="fill:#ffffff;stroke:none"
         d="m 760,36 v 14 h 252 V 36 Z m 4.48047,0.482422 h 243.03713 c 2.216,0 4,1.784 4,4 v 5.037109 c 0,2.216 -1.784,4 -4,4 H 764.48047 c -2.216,0 -4,-1.784 -4,-4 v -5.037109 c 0,-2.216 1.784,-4 4,-4 z" />
      <rect
         style="fill:none;stroke:#000000;stroke-width:0.963143;stroke-miterlimit:4;stroke-dasharray:none"
         id="rect847"
         width="251.03685"
         height="13.036857"
         x="760.48157"
         y="36.481571"
         rx="4"
         ry="4" />
    </g>
    <path
       style="fill:#000000;stroke:none;stroke-width:1px;stroke-linecap:butt;stroke-linejoin:miter;stroke-opacity:1"
       d="M 685,14 695,0 v 14 z"
       id="path865" />
    <path
       style="fill:#000000;stroke:none;stroke-width:1px;stroke-linecap:butt;stroke-linejoin:miter;stroke-opacity:1"
       d="M 735,0 725,14 V 0 Z"
       id="path867" />
    <rect
       style="fill:#000000;stroke:none;stroke-width:1;stroke-miterlimit:4;stroke-dasharray:none"
       id="rect869"
       width="10"
       height="14"
       x="695"
       y="0" />
    <rect
       style="fill:#000000;stroke:none;stroke-width:1;stroke-miterlimit:4;stroke-dasharray:none"
       id="rect871"
       width="10"
       height="14"
       x="705"
       y="0" />
    <rect
       style="fill:#000000;stroke:none;stroke-width:1;stroke-miterlimit:4;stroke-dasharray:none"
       id="rect873"
       width="10"
       height="14"
       x="715"
       y="0" />
    <g
       id="g948"
       transform="translate(16,18)">
      <path
         id="path932"
         style="fill:#000000;stroke:none;stroke-width:1px;stroke-linecap:butt;stroke-linejoin:miter;stroke-opacity:1"
         d="m 770,36 -10,14 h 10 10 10 10 l 10,-14 h -10 -10 -10 z" />
      <path
         id="path934"
         style="fill:#ffffff;stroke:none;stroke-width:1px;stroke-linecap:butt;stroke-linejoin:miter;stroke-opacity:1"
         d="m 810,36 -10,14 h 10 10 10 10 l 10,-14 h -10 -10 -10 z" />
      <path
         id="path936"
         style="fill:#000000;stroke:none;stroke-width:1px;stroke-linecap:butt;stroke-linejoin:miter;stroke-opacity:1"
         d="m 850,36 -10,14 h 10 10 10 10 l 10,-14 h -10 -10 -10 z" />
      <path
         id="path938"
         style="fill:#ffffff;stroke:none;stroke-width:1px;stroke-linecap:butt;stroke-linejoin:miter;stroke-opacity:1"
         d="m 890,36 -10,14 h 10 10 10 10 l 10,-14 h -10 -10 -10 z" />
      <path
         id="path940"
         style="fill:#000000;stroke:none;stroke-width:1px;stroke-linecap:butt;stroke-linejoin:miter;stroke-opacity:1"
         d="m 930,36 -10,14 h 10 10 10 10 l 10,-14 h -10 -10 -10 z" />
      <path
         id="path942"
         style="fill:#ffffff;stroke:none;stroke-width:1px;stroke-linecap:butt;stroke-linejoin:miter;stroke-opacity:1"
         d="m 970,36 -10,14 h 10 10 10 10 l 10,-14 h -10 -10 -10 z" />
      <path
         id="path944"
         style="fill:#000000;stroke:none;stroke-width:1px;stroke-linecap:butt;stroke-linejoin:miter;stroke-opacity:1"
         d="m 1010,36 -10,14 h 10 10 10 10 l 10,-14 h -10 -10 -10 z" />
      <path
         id="path946"
         style="fill:#ffffff;stroke:none;stroke-width:1px;stroke-linecap:butt;stroke-linejoin:miter;stroke-opacity:1"
         d="m 730,36 -10,14 h 10 10 10 10 l 10,-14 h -10 -10 -10 z" />
    </g>
    <g
       id="g954"
       inkscape:export-xdpi="96"
       inkscape:export-ydpi="96"
       transform="translate(0,18)"
       inkscape:export-filename="/tycho/android/system/device/onyx/t68/recovery/res/images/indeterminate02.png">
      <path
         id="path950"
         style="fill:#ffffff;stroke:none"
         d="m 760,36 v 14 h 252 V 36 Z m 4.48047,0.482422 h 243.03713 c 2.216,0 4,1.784 4,4 v 5.037109 c 0,2.216 -1.784,4 -4,4 H 764.48047 c -2.216,0 -4,-1.784 -4,-4 v -5.037109 c 0,-2.216 1.784,-4 4,-4 z" />
      <rect
         style="fill:none;stroke:#000000;stroke-width:0.963143;stroke-miterlimit:4;stroke-dasharray:none"
         id="rect952"
         width="251.03685"
         height="13.036857"
         x="760.48157"
         y="36.481571"
         rx="4"
         ry="4" />
    </g>
    <g
       id="g972"
       transform="translate(32,36)">
      <path
         id="path956"
         style="fill:#000000;stroke:none;stroke-width:1px;stroke-linecap:butt;stroke-linejoin:miter;stroke-opacity:1"
         d="m 770,36 -10,14 h 10 10 10 10 l 10,-14 h -10 -10 -10 z" />
      <path
         id="path958"
         style="fill:#ffffff;stroke:none;stroke-width:1px;stroke-linecap:butt;stroke-linejoin:miter;stroke-opacity:1"
         d="m 810,36 -10,14 h 10 10 10 10 l 10,-14 h -10 -10 -10 z" />
      <path
         id="path960"
         style="fill:#000000;stroke:none;stroke-width:1px;stroke-linecap:butt;stroke-linejoin:miter;stroke-opacity:1"
         d="m 850,36 -10,14 h 10 10 10 10 l 10,-14 h -10 -10 -10 z" />
      <path
         id="path962"
         style="fill:#ffffff;stroke:none;stroke-width:1px;stroke-linecap:butt;stroke-linejoin:miter;stroke-opacity:1"
         d="m 890,36 -10,14 h 10 10 10 10 l 10,-14 h -10 -10 -10 z" />
      <path
         id="path964"
         style="fill:#000000;stroke:none;stroke-width:1px;stroke-linecap:butt;stroke-linejoin:miter;stroke-opacity:1"
         d="m 930,36 -10,14 h 10 10 10 10 l 10,-14 h -10 -10 -10 z" />
      <path
         id="path966"
         style="fill:#ffffff;stroke:none;stroke-width:1px;stroke-linecap:butt;stroke-linejoin:miter;stroke-opacity:1"
         d="m 970,36 -10,14 h 10 10 10 10 l 10,-14 h -10 -10 -10 z" />
      <path
         id="path968"
         style="fill:#000000;stroke:none;stroke-width:1px;stroke-linecap:butt;stroke-linejoin:miter;stroke-opacity:1"
         d="m 1010,36 -10,14 h 10 10 10 10 l 10,-14 h -10 -10 -10 z" />
      <path
         id="path970"
         style="fill:#ffffff;stroke:none;stroke-width:1px;stroke-linecap:butt;stroke-linejoin:miter;stroke-opacity:1"
         d="m 730,36 -10,14 h 10 10 10 10 l 10,-14 h -10 -10 -10 z" />
    </g>
    <g
       id="g978"
       inkscape:export-xdpi="96"
       inkscape:export-ydpi="96"
       transform="translate(0,36)"
       inkscape:export-filename="/tycho/android/system/device/onyx/t68/recovery/res/images/indeterminate03.png">
      <path
         id="path974"
         style="fill:#ffffff;stroke:none"
         d="m 760,36 v 14 h 252 V 36 Z m 4.48047,0.482422 h 243.03713 c 2.216,0 4,1.784 4,4 v 5.037109 c 0,2.216 -1.784,4 -4,4 H 764.48047 c -2.216,0 -4,-1.784 -4,-4 v -5.037109 c 0,-2.216 1.784,-4 4,-4 z" />
      <rect
         style="fill:none;stroke:#000000;stroke-width:0.963143;stroke-miterlimit:4;stroke-dasharray:none"
         id="rect976"
         width="251.03685"
         height="13.036857"
         x="760.48157"
         y="36.481571"
         rx="4"
         ry="4" />
    </g>
    <g
       id="g996"
       transform="translate(48,54)">
      <path
         id="path980"
         style="fill:#000000;stroke:none;stroke-width:1px;stroke-linecap:butt;stroke-linejoin:miter;stroke-opacity:1"
         d="m 770,36 -10,14 h 10 10 10 10 l 10,-14 h -10 -10 -10 z" />
      <path
         id="path982"
         style="fill:#ffffff;stroke:none;stroke-width:1px;stroke-linecap:butt;stroke-linejoin:miter;stroke-opacity:1"
         d="m 810,36 -10,14 h 10 10 10 10 l 10,-14 h -10 -10 -10 z" />
      <path
         id="path984"
         style="fill:#000000;stroke:none;stroke-width:1px;stroke-linecap:butt;stroke-linejoin:miter;stroke-opacity:1"
         d="m 850,36 -10,14 h 10 10 10 10 l 10,-14 h -10 -10 -10 z" />
      <path
         id="path986"
         style="fill:#ffffff;stroke:none;stroke-width:1px;stroke-linecap:butt;stroke-linejoin:miter;stroke-opacity:1"
         d="m 890,36 -10,14 h 10 10 10 10 l 10,-14 h -10 -10 -10 z" />
      <path
         id="path988"
         style="fill:#000000;stroke:none;stroke-width:1px;stroke-linecap:butt;stroke-linejoin:miter;stroke-opacity:1"
         d="m 930,36 -10,14 h 10 10 10 10 l 10,-14 h -10 -10 -10 z" />
      <path
         id="path990"
         style="fill:#ffffff;stroke:none;stroke-width:1px;stroke-linecap:butt;stroke-linejoin:miter;stroke-opacity:1"
         d="m 970,36 -10,14 h 10 10 10 10 l 10,-14 h -10 -10 -10 z" />
      <path
         id="path992"
         style="fill:#000000;stroke:none;stroke-width:1px;stroke-linecap:butt;stroke-linejoin:miter;stroke-opacity:1"
         d="m 1010,36 -10,14 h 10 10 10 10 l 10,-14 h -10 -10 -10 z" />
      <path
         id="path994"
         style="fill:#ffffff;stroke:none;stroke-width:1px;stroke-linecap:butt;stroke-linejoin:miter;stroke-opacity:1"
         d="m 730,36 -10,14 h 10 10 10 10 l 10,-14 h -10 -10 -10 z" />
    </g>
    <g
       id="g1020"
       transform="translate(60,72)">
      <path
         id="path1004"
         style="fill:#000000;stroke:none;stroke-width:1px;stroke-linecap:butt;stroke-linejoin:miter;stroke-opacity:1"
         d="m 770,36 -10,14 h 10 10 10 10 l 10,-14 h -10 -10 -10 z" />
      <path
         id="path1006"
         style="fill:#ffffff;stroke:none;stroke-width:1px;stroke-linecap:butt;stroke-linejoin:miter;stroke-opacity:1"
         d="m 810,36 -10,14 h 10 10 10 10 l 10,-14 h -10 -10 -10 z" />
      <path
         id="path1008"
         style="fill:#000000;stroke:none;stroke-width:1px;stroke-linecap:butt;stroke-linejoin:miter;stroke-opacity:1"
         d="m 850,36 -10,14 h 10 10 10 10 l 10,-14 h -10 -10 -10 z" />
      <path
         id="path1010"
         style="fill:#ffffff;stroke:none;stroke-width:1px;stroke-linecap:butt;stroke-linejoin:miter;stroke-opacity:1"
         d="m 890,36 -10,14 h 10 10 10 10 l 10,-14 h -10 -10 -10 z" />
      <path
         id="path1012"
         style="fill:#000000;stroke:none;stroke-width:1px;stroke-linecap:butt;stroke-linejoin:miter;stroke-opacity:1"
         d="m 930,36 -10,14 h 10 10 10 10 l 10,-14 h -10 -10 -10 z" />
      <path
         id="path1014"
         style="fill:#ffffff;stroke:none;stroke-width:1px;stroke-linecap:butt;stroke-linejoin:miter;stroke-opacity:1"
         d="m 970,36 -10,14 h 10 10 10 10 l 10,-14 h -10 -10 -10 z" />
      <path
         id="path1016"
         style="fill:#000000;stroke:none;stroke-width:1px;stroke-linecap:butt;stroke-linejoin:miter;stroke-opacity:1"
         d="m 1010,36 -10,14 h 10 10 10 10 l 10,-14 h -10 -10 -10 z" />
      <path
         id="path1018"
         style="fill:#ffffff;stroke:none;stroke-width:1px;stroke-linecap:butt;stroke-linejoin:miter;stroke-opacity:1"
         d="m 730,36 -10,14 h 10 10 10 10 l 10,-14 h -10 -10 -10 z" />
      <path
         id="path1082"
         style="fill:#000000;stroke:none;stroke-width:1px;stroke-linecap:butt;stroke-linejoin:miter;stroke-opacity:1"
         d="m 1010,36 -10,14 h 10 10 10 10 l 10,-14 h -10 -10 -10 z" />
      <path
         id="path1084"
         style="fill:#000000;stroke:none;stroke-width:1px;stroke-linecap:butt;stroke-linejoin:miter;stroke-opacity:1"
         d="m 690,36 -10,14 h 10 10 10 10 l 10,-14 h -10 -10 -10 z" />
      <path
         id="path1086"
         style="fill:#000000;stroke:none;stroke-width:1px;stroke-linecap:butt;stroke-linejoin:miter;stroke-opacity:1"
         d="m 678,18 -10,14 h 10 10 10 10 l 10,-14 h -10 -10 -10 z" />
      <path
         id="path1088"
         style="fill:#000000;stroke:none;stroke-width:1px;stroke-linecap:butt;stroke-linejoin:miter;stroke-opacity:1"
         d="m 710,54 -10,14 h 10 10 10 10 l 10,-14 h -10 -10 -10 z" />
    </g>
    <g
       id="g1026"
       inkscape:export-xdpi="96"
       inkscape:export-ydpi="96"
       transform="translate(0,72)"
       inkscape:export-filename="/tycho/android/system/device/onyx/t68/recovery/res/images/indeterminate05.png">
      <path
         id="path1022"
         style="fill:#ffffff;stroke:none"
         d="m 760,36 v 14 h 252 V 36 Z m 4.48047,0.482422 h 243.03713 c 2.216,0 4,1.784 4,4 v 5.037109 c 0,2.216 -1.784,4 -4,4 H 764.48047 c -2.216,0 -4,-1.784 -4,-4 v -5.037109 c 0,-2.216 1.784,-4 4,-4 z" />
      <rect
         style="fill:none;stroke:#000000;stroke-width:0.963143;stroke-miterlimit:4;stroke-dasharray:none"
         id="rect1024"
         width="251.03685"
         height="13.036857"
         x="760.48157"
         y="36.481571"
         rx="4"
         ry="4" />
    </g>
    <g
       id="g1046"
       transform="translate(76,90)">
      <path
         id="path1030"
         style="fill:#000000;stroke:none;stroke-width:1px;stroke-linecap:butt;stroke-linejoin:miter;stroke-opacity:1"
         d="m 770,36 -10,14 h 10 10 10 10 l 10,-14 h -10 -10 -10 z" />
      <path
         id="path1032"
         style="fill:#ffffff;stroke:none;stroke-width:1px;stroke-linecap:butt;stroke-linejoin:miter;stroke-opacity:1"
         d="m 810,36 -10,14 h 10 10 10 10 l 10,-14 h -10 -10 -10 z" />
      <path
         id="path1034"
         style="fill:#000000;stroke:none;stroke-width:1px;stroke-linecap:butt;stroke-linejoin:miter;stroke-opacity:1"
         d="m 850,36 -10,14 h 10 10 10 10 l 10,-14 h -10 -10 -10 z" />
      <path
         id="path1036"
         style="fill:#ffffff;stroke:none;stroke-width:1px;stroke-linecap:butt;stroke-linejoin:miter;stroke-opacity:1"
         d="m 890,36 -10,14 h 10 10 10 10 l 10,-14 h -10 -10 -10 z" />
      <path
         id="path1038"
         style="fill:#000000;stroke:none;stroke-width:1px;stroke-linecap:butt;stroke-linejoin:miter;stroke-opacity:1"
         d="m 930,36 -10,14 h 10 10 10 10 l 10,-14 h -10 -10 -10 z" />
      <path
         id="path1040"
         style="fill:#ffffff;stroke:none;stroke-width:1px;stroke-linecap:butt;stroke-linejoin:miter;stroke-opacity:1"
         d="m 970,36 -10,14 h 10 10 10 10 l 10,-14 h -10 -10 -10 z" />
      <path
         id="path1042"
         style="fill:#000000;stroke:none;stroke-width:1px;stroke-linecap:butt;stroke-linejoin:miter;stroke-opacity:1"
         d="m 1010,36 -10,14 h 10 10 10 10 l 10,-14 h -10 -10 -10 z" />
      <path
         id="path1044"
         style="fill:#ffffff;stroke:none;stroke-width:1px;stroke-linecap:butt;stroke-linejoin:miter;stroke-opacity:1"
         d="m 730.48157,35.518429 -10,14 h 10 10 10 10 l 10,-14 h -10 -10 -10 z" />
      <path
         id="path1054"
         style="fill:#000000;stroke:none;stroke-width:1px;stroke-linecap:butt;stroke-linejoin:miter;stroke-opacity:1"
         d="m 1010,36 -10,14 h 10 10 10 10 l 10,-14 h -10 -10 -10 z" />
    </g>
    <g
       id="g1052"
       inkscape:export-xdpi="96"
       inkscape:export-ydpi="96"
       transform="translate(0,90)">
      <path
         id="path1048"
         style="fill:#ffffff;stroke:none"
         d="m 760,36 v 14 h 252 V 36 Z m 4.48047,0.482422 h 243.03713 c 2.216,0 4,1.784 4,4 v 5.037109 c 0,2.216 -1.784,4 -4,4 H 764.48047 c -2.216,0 -4,-1.784 -4,-4 v -5.037109 c 0,-2.216 1.784,-4 4,-4 z" />
      <rect
         style="fill:none;stroke:#000000;stroke-width:0.963143;stroke-miterlimit:4;stroke-dasharray:none"
         id="rect1050"
         width="251.03685"
         height="13.036857"
         x="760.48157"
         y="36.481571"
         rx="4"
         ry="4" />
    </g>
    <g
       id="g1002"
       inkscape:export-xdpi="96"
       inkscape:export-ydpi="96"
       transform="translate(0,54)"
       inkscape:export-filename="/tycho/android/system/device/onyx/t68/recovery/res/images/indeterminate04.png">
      <path
         id="path998"
         style="fill:#ffffff;stroke:none"
         d="m 760,36 v 14 h 252 V 36 Z m 4.48047,0.482422 h 243.03713 c 2.216,0 4,1.784 4,4 v 5.037109 c 0,2.216 -1.784,4 -4,4 H 764.48047 c -2.216,0 -4,-1.784 -4,-4 v -5.037109 c 0,-2.216 1.784,-4 4,-4 z" />
      <rect
         style="fill:none;stroke:#000000;stroke-width:0.963143;stroke-miterlimit:4;stroke-dasharray:none"
         id="rect1000"
         width="251.03685"
         height="13.036857"
         x="760.48157"
         y="36.481571"
         rx="4"
         ry="4" />
    </g>
  </g>
</svg>
